<?xml version="1.0" encoding="UTF-8" standalone="no"?>
<svg
   xmlns="http://www.w3.org/2000/svg"
   version="1.1"
   id="svg3358"
   viewBox="0 0 91.802382 90.738108"
   >
  <defs
     id="defs3360" />
  <metadata
     id="metadata3363">
    <rdf:RDF>
      <cc:Work
         rdf:about="">
        <dc:format>image/svg+xml</dc:format>
        <dc:type
           rdf:resource="http://purl.org/dc/dcmitype/StillImage" />
        <dc:title></dc:title>
      </cc:Work>
    </rdf:RDF>
  </metadata>
  <g
     transform="translate(-8.3845228,-9.8502953)"
     id="layer1">
    <path
       id="path3347"
       d="m 41.778682,99.875039 c -2.6707,-0.69185 -6.89041,-2.3649 -9.37712,-3.71788 -8.59761,-4.67781 -18.617039,-15.47797 -18.617039,-20.0677 0,-7.23374 6.03936,-15.54697 13.683429,-18.83536 3.59325,-1.54577 7.11113,-2.15578 14.4339,-2.50287 l 9.68267,-0.45894 0,20.31887 c 0,11.17537 -0.38562,21.3331 -0.85692,22.57273 -1.32634,3.488541 -3.42942,4.120981 -8.94892,2.69115 z m 22.21595,-1.19931 c -2.03376,-1.64552 -2.06355,-1.95564 -2.32911,-24.24768 -0.16025,-13.45214 0.0681,-22.58085 0.5648,-22.58085 0.45859,0 1.32952,0.5973 1.9354,1.32735 0.60587,0.73003 5.81921,4.02199 11.58519,7.31546 11.127,6.35562 17.52374,11.03598 19.09457,13.97111 0.77846,1.45456 0.4326,2.61188 -1.83803,6.15034 -5.09772,7.9441 -14.3462,15.28328 -23.19232,18.40437 -3.46966,1.224171 -3.91968,1.197871 -5.8205,-0.3401 z m 32.13945,-37.48097 c -1.48476,-1.1996 -7.76206,-5.17268 -13.94956,-8.82906 -12.0699,-7.13247 -16.19796,-10.72451 -18.40439,-16.01459 -2.76455,-6.62822 -1.35276,-16.24731 3.16981,-21.597152 l 2.49953,-2.956761 6.12148,3.128958 c 11.13692,5.692565 19.99442,16.865105 23.2355,29.308445 1.424158,5.46777 1.893978,17.98752 0.70263,18.72382 -0.37151,0.22959 -1.89026,-0.56405 -3.375,-1.76366 z M 8.3845228,55.636289 c 0,-5.37331 1.8118202,-15.12388 3.2395302,-17.43396 0.27593,-0.44647 1.38117,0.47964 2.45608,2.05802 2.81549,4.13418 7.662769,7.76444 13.576959,10.16815 l 5.15507,2.09518 -4.30345,0.64534 c -5.896,0.88416 -13.326029,3.77521 -16.443149,6.39809 -1.42499,1.19905 -2.8361702,2.18009 -3.1359702,2.18009 -0.29979,0 -0.54507,-2.74991 -0.54507,-6.11091 z m 30.1499992,-4.23142 c -0.495,-0.16512 -2.00633,-0.544 -3.3585,-0.84195 -3.36809,-0.74216 -8.51568,-5.44677 -10.74856,-9.82359 -1.55387,-3.04583 -1.78802,-4.82858 -1.45859,-11.10518 0.45881,-8.74141 1.42035,-10.19299 9.66165,-14.585559 5.34856,-2.85075 16.57003,-5.9685324 18.09336,-5.027065 0.50704,0.313372 0.86064,9.014584 0.86064,21.178794 l 0,20.64688 -6.075,-0.071 c -3.34125,-0.0391 -6.48,-0.20615 -6.975,-0.37128 z"
       style="fill:#000000" />
  </g>
</svg>
